<svg width="256" height="86" viewBox="0 0 256 86" fill="none" xmlns="http://www.w3.org/2000/svg">
<path d="M56.4979 27.2579L45.099 42.0547L37.2867 31.9136C36.1536 30.4428 33.9319 30.4428 32.7988 31.9136L24.9865 42.0547L13.5875 27.2579C12.5348 25.8913 12.9432 23.9104 14.4511 23.0697L33.6623 12.3587C34.5202 11.8804 35.5653 11.8804 36.4232 12.3587L55.6344 23.0697C57.1423 23.9104 57.5507 25.8913 56.4979 27.2579Z" fill="#1DEDA2"/>
<path d="M24.9865 42.0547L32.7988 52.1958C33.9318 53.6665 36.1536 53.6665 37.2867 52.1958L45.099 42.0547L56.4985 56.8521C57.5511 58.2185 57.143 60.199 55.6356 61.0399L36.4238 71.7575C35.5656 72.2363 34.5199 72.2363 33.6617 71.7575L14.4499 61.0399C12.9425 60.199 12.5344 58.2185 13.587 56.8521L24.9865 42.0547Z" fill="#1DEDA2"/>
<path d="M91.2977 26.3235C94.0167 24.7698 97.0433 23.9929 100.377 23.9929C103.712 23.9929 106.738 24.7698 109.457 26.3235C112.176 27.8773 114.305 30.0218 115.842 32.7571C117.396 35.4924 118.173 38.5351 118.173 41.8854C118.173 45.2357 117.396 48.2785 115.842 51.0138C114.305 53.749 112.176 55.8936 109.457 57.4473C106.738 59.0011 103.712 59.778 100.377 59.778C97.0433 59.778 94.0167 59.0011 91.2977 57.4473C88.5948 55.8936 86.4745 53.749 84.9369 51.0138C83.3994 48.2785 82.6306 45.2357 82.6306 41.8854C82.6306 38.5351 83.3994 35.4924 84.9369 32.7571C86.4745 30.0218 88.5948 27.8773 91.2977 26.3235ZM107.661 34.238C105.718 32.1825 103.291 31.1548 100.377 31.1548C97.4641 31.1548 95.0364 32.1825 93.0942 34.238C91.152 36.2773 90.1809 38.8265 90.1809 41.8854C90.1809 44.9444 91.152 47.5016 93.0942 49.5571C95.0364 51.6126 97.4641 52.6404 100.377 52.6404C103.291 52.6404 105.718 51.6126 107.661 49.5571C109.603 47.5016 110.574 44.9444 110.574 41.8854C110.574 38.8265 109.603 36.2773 107.661 34.238ZM137.621 24.4785H144.637V59.2924H137.621V56.4034C137.022 57.4069 136.051 58.2242 134.708 58.8554C133.381 59.4704 131.948 59.778 130.411 59.778C128.323 59.778 126.405 59.2115 124.657 58.0785C122.909 56.9456 121.533 55.408 120.53 53.4658C119.526 51.5074 119.025 49.371 119.025 47.0565C119.025 43.5282 120.125 40.534 122.326 38.0739C124.544 35.6137 127.238 34.3837 130.411 34.3837C131.932 34.3837 133.364 34.6993 134.708 35.3305C136.051 35.9617 137.022 36.771 137.621 37.7583V24.4785ZM131.964 53.1259C133.146 53.1259 134.247 52.8427 135.266 52.2762C136.302 51.7097 137.087 50.9814 137.621 50.0912V44.119C137.087 43.1964 136.302 42.4438 135.266 41.8612C134.247 41.2785 133.146 40.9872 131.964 40.9872C130.249 40.9872 128.808 41.5698 127.643 42.7351C126.478 43.8843 125.895 45.3247 125.895 47.0565C125.895 48.7883 126.478 50.2369 127.643 51.4022C128.808 52.5514 130.249 53.1259 131.964 53.1259ZM163.867 34.8692H171.417L157.846 67.4011H150.344L154.86 57.3017L145.465 34.8692H153.039L158.453 49.1444L163.867 34.8692ZM180.135 59.778C175.7 59.778 172.051 58.7583 169.186 56.719L171.274 51.8392C173.572 53.5548 176.323 54.4126 179.528 54.4126C180.612 54.4126 181.478 54.2265 182.126 53.8542C182.789 53.482 183.121 53.0045 183.121 52.4219C183.121 51.9201 182.87 51.5074 182.368 51.1837C181.883 50.8438 181.252 50.5768 180.475 50.3826C179.698 50.1883 178.84 49.9941 177.901 49.7999C176.963 49.5895 176.024 49.3224 175.085 48.9987C174.146 48.6589 173.289 48.2461 172.512 47.7606C171.735 47.2589 171.096 46.5629 170.594 45.6727C170.108 44.7664 169.857 43.7062 169.841 42.4924C169.809 40.1941 170.715 38.2681 172.56 36.7143C174.405 35.1606 176.76 34.3837 179.625 34.3837C183.493 34.3837 186.593 35.3143 188.923 37.1756L186.933 42.2496C185.962 41.5213 184.772 40.9143 183.364 40.4288C181.972 39.9432 180.629 39.7005 179.334 39.7005C178.444 39.7005 177.723 39.8866 177.173 40.2588C176.623 40.6311 176.348 41.0924 176.348 41.6427C176.348 42.0635 176.542 42.4357 176.93 42.7594C177.319 43.0669 177.82 43.3178 178.435 43.512C179.067 43.7062 179.779 43.9247 180.572 44.1675C181.381 44.3941 182.199 44.6207 183.024 44.8473C183.849 45.0739 184.659 45.3895 185.452 45.7941C186.261 46.1987 186.981 46.66 187.612 47.1779C188.244 47.6797 188.753 48.3433 189.142 49.1687C189.546 49.9941 189.757 50.9329 189.773 51.9849C189.773 54.2508 188.867 56.1202 187.054 57.593C185.257 59.0496 182.951 59.778 180.135 59.778ZM214.684 46.0126C214.684 46.9999 214.619 47.9144 214.49 48.756H196.937C197.261 50.4068 197.965 51.6693 199.049 52.5433C200.133 53.4011 201.517 53.83 203.201 53.83C204.301 53.83 205.353 53.5953 206.357 53.1259C207.376 52.6566 208.096 52.0577 208.517 51.3294L213.98 54.6797C213.09 56.2982 211.681 57.5525 209.755 58.4427C207.829 59.3329 205.596 59.778 203.055 59.778C199.462 59.778 196.419 58.5479 193.926 56.0878C191.45 53.6115 190.212 50.5687 190.212 46.9594C190.212 43.4149 191.434 40.4369 193.878 38.0253C196.338 35.5976 199.348 34.3837 202.909 34.3837C206.211 34.3837 208.995 35.5085 211.261 37.7583C213.543 40.008 214.684 42.7594 214.684 46.0126ZM197.034 44.2889H207.668C207.522 43.075 206.955 42.0635 205.968 41.2542C204.981 40.445 203.84 40.0403 202.545 40.0403C201.088 40.0403 199.891 40.4126 198.952 41.1571C198.013 41.9016 197.374 42.9456 197.034 44.2889ZM230.296 34.3837C233.371 34.3837 235.791 35.3791 237.555 37.3698C239.335 39.3444 240.226 42.0473 240.226 45.4785V59.2924H233.209V46.6681C233.209 45.001 232.789 43.6982 231.947 42.7594C231.105 41.8207 229.956 41.3513 228.5 41.3513C227.529 41.3513 226.598 41.6022 225.708 42.1039C224.818 42.6057 224.122 43.2773 223.62 44.119V59.2924H216.604V34.8692H223.62V37.7583C224.283 36.7224 225.214 35.9051 226.412 35.3062C227.626 34.6912 228.92 34.3837 230.296 34.3837Z" fill="#08091E"/>
</svg>
