<svg width="384" height="130" viewBox="0 0 384 130" fill="none" xmlns="http://www.w3.org/2000/svg">
<path d="M84.7469 43.1329L67.6485 65.5668L55.93 50.1916C54.2305 47.9617 50.8978 47.9617 49.1982 50.1916L37.4797 65.5668L20.3813 43.1329C18.8022 41.061 19.4148 38.0578 21.6766 36.7832L50.4935 20.5439C51.7803 19.8187 53.3479 19.8187 54.6347 20.5439L83.4516 36.7832C85.7135 38.0578 86.3261 41.061 84.7469 43.1329Z" fill="#1DEDA2"/>
<path d="M37.4797 65.5668L49.1982 80.942C50.8978 83.1719 54.2305 83.1719 55.93 80.942L67.6485 65.5668L84.7477 88.0016C86.3266 90.0732 85.7145 93.0759 83.4533 94.3509L54.6357 110.6C53.3484 111.326 51.7799 111.326 50.4926 110.6L21.6749 94.3509C19.4138 93.0759 18.8017 90.0732 20.3806 88.0016L37.4797 65.5668Z" fill="#1DEDA2"/>
<path d="M136.946 40.99C141.025 38.6594 145.565 37.4941 150.566 37.4941C155.567 37.4941 160.107 38.6594 164.186 40.99C168.264 43.3207 171.457 46.5374 173.763 50.6403C176.094 54.7432 177.259 59.3074 177.259 64.3329C177.259 69.3583 176.094 73.9225 173.763 78.0254C171.457 82.1283 168.264 85.3451 164.186 87.6757C160.107 90.0063 155.567 91.1717 150.566 91.1717C145.565 91.1717 141.025 90.0063 136.946 87.6757C132.892 85.3451 129.712 82.1283 127.405 78.0254C125.099 73.9225 123.946 69.3583 123.946 64.3329C123.946 59.3074 125.099 54.7432 127.405 50.6403C129.712 46.5374 132.892 43.3207 136.946 40.99ZM161.491 52.8617C158.578 49.7785 154.936 48.2369 150.566 48.2369C146.196 48.2369 142.554 49.7785 139.641 52.8617C136.728 55.9207 135.271 59.7444 135.271 64.3329C135.271 68.9213 136.728 72.7572 139.641 75.8404C142.554 78.9237 146.196 80.4653 150.566 80.4653C154.936 80.4653 158.578 78.9237 161.491 75.8404C164.404 72.7572 165.861 68.9213 165.861 64.3329C165.861 59.7444 164.404 55.9207 161.491 52.8617ZM206.431 38.2224H216.956V90.4433H206.431V86.1098C205.533 87.615 204.076 88.841 202.061 89.7878C200.071 90.7104 197.922 91.1717 195.616 91.1717C192.484 91.1717 189.607 90.3219 186.985 88.6225C184.363 86.9231 182.3 84.6167 180.794 81.7034C179.289 78.7659 178.537 75.5612 178.537 72.0895C178.537 66.797 180.187 62.3057 183.489 58.6155C186.815 54.9253 190.857 53.0802 195.616 53.0802C197.898 53.0802 200.046 53.5536 202.061 54.5005C204.076 55.4473 205.533 56.6612 206.431 58.1421V38.2224ZM197.946 81.1936C199.719 81.1936 201.37 80.7687 202.899 79.919C204.453 79.0693 205.63 77.9768 206.431 76.6416V67.6832C205.63 66.2993 204.453 65.1704 202.899 64.2964C201.37 63.4225 199.719 62.9855 197.946 62.9855C195.373 62.9855 193.212 63.8595 191.464 65.6074C189.716 67.3311 188.842 69.4918 188.842 72.0895C188.842 74.6872 189.716 76.8601 191.464 78.608C193.212 80.3318 195.373 81.1936 197.946 81.1936ZM245.8 53.8086H257.126L236.769 102.606H225.516L232.29 87.4572L218.197 53.8086H229.559L237.679 75.2213L245.8 53.8086ZM270.202 91.1717C263.55 91.1717 258.076 89.6422 253.778 86.5832L256.91 79.2635C260.358 81.837 264.485 83.1237 269.292 83.1237C270.918 83.1237 272.217 82.8445 273.188 82.2861C274.184 81.7277 274.681 81.0115 274.681 80.1375C274.681 79.3849 274.305 78.7659 273.552 78.2803C272.824 77.7705 271.877 77.3699 270.712 77.0786C269.547 76.7872 268.26 76.4959 266.852 76.2046C265.444 75.889 264.036 75.4884 262.628 75.0028C261.219 74.493 259.933 73.8739 258.767 73.1456C257.602 72.393 256.643 71.3491 255.891 70.0138C255.162 68.6543 254.786 67.0641 254.762 65.2433C254.713 61.7959 256.073 58.9068 258.84 56.5762C261.608 54.2456 265.14 53.0802 269.437 53.0802C275.24 53.0802 279.889 54.4762 283.385 57.2681L280.399 64.8791C278.942 63.7866 277.158 62.8762 275.046 62.1479C272.958 61.4196 270.943 61.0554 269 61.0554C267.665 61.0554 266.585 61.3346 265.759 61.893C264.934 62.4514 264.521 63.1433 264.521 63.9687C264.521 64.5999 264.813 65.1583 265.395 65.6439C265.978 66.1051 266.73 66.4814 267.653 66.7728C268.6 67.0641 269.668 67.3918 270.858 67.756C272.072 68.0959 273.298 68.4358 274.536 68.7757C275.774 69.1155 276.988 69.5889 278.177 70.1959C279.391 70.8028 280.472 71.4947 281.418 72.2716C282.365 73.0242 283.13 74.0196 283.713 75.2577C284.32 76.4959 284.635 77.904 284.659 79.482C284.659 82.8809 283.3 85.6849 280.581 87.8942C277.886 90.0792 274.426 91.1717 270.202 91.1717ZM322.025 70.5236C322.025 72.0046 321.928 73.3762 321.734 74.6387H295.405C295.891 77.115 296.947 79.0086 298.573 80.3196C300.2 81.6063 302.276 82.2497 304.801 82.2497C306.451 82.2497 308.029 81.8977 309.535 81.1936C311.064 80.4896 312.144 79.5913 312.776 78.4988L320.969 83.5242C319.634 85.952 317.522 87.8335 314.633 89.1688C311.744 90.504 308.394 91.1717 304.582 91.1717C299.192 91.1717 294.628 89.3266 290.889 85.6364C287.175 81.9219 285.318 77.3578 285.318 71.9439C285.318 66.6271 287.151 62.16 290.817 58.5427C294.507 54.901 299.022 53.0802 304.364 53.0802C309.316 53.0802 313.492 54.7675 316.891 58.1421C320.314 61.5167 322.025 65.6439 322.025 70.5236ZM295.551 67.9381H311.501C311.283 66.1173 310.433 64.5999 308.952 63.386C307.471 62.1722 305.759 61.5652 303.817 61.5652C301.632 61.5652 299.836 62.1236 298.428 63.2404C297.02 64.3571 296.061 65.923 295.551 67.9381ZM345.444 53.0802C350.057 53.0802 353.686 54.5733 356.332 57.5594C359.003 60.5213 360.338 64.5756 360.338 69.7225V90.4433H349.814V71.5069C349.814 69.0063 349.183 67.0519 347.92 65.6439C346.658 64.2358 344.934 63.5317 342.749 63.5317C341.293 63.5317 339.897 63.908 338.561 64.6606C337.226 65.4132 336.182 66.4207 335.43 67.6832V90.4433H324.905V53.8086H335.43V58.1421C336.425 56.5883 337.821 55.3623 339.617 54.4641C341.438 53.5415 343.38 53.0802 345.444 53.0802Z" fill="#08091E"/>
</svg>
