<svg width="256" height="256" viewBox="0 0 256 256" fill="none" xmlns="http://www.w3.org/2000/svg">
<path d="M210.866 70.8827L166.876 127.986L136.726 88.8498C132.354 83.1738 123.78 83.1738 119.407 88.8498L89.2578 127.986L45.2674 70.8827C41.2046 65.6088 42.7807 57.9643 48.5999 54.7199L122.739 13.3844C126.05 11.5385 130.083 11.5385 133.394 13.3844L207.533 54.7199C213.353 57.9643 214.929 65.6088 210.866 70.8827Z" fill="#1DEDA2"/>
<path d="M89.2578 127.986L119.407 167.122C123.78 172.798 132.354 172.798 136.726 167.122L166.876 127.986L210.868 185.092C214.93 190.365 213.355 198.008 207.538 201.253L133.396 242.614C130.084 244.462 126.049 244.462 122.737 242.614L48.5955 201.253C42.7782 198.008 41.2033 190.365 45.2655 185.092L89.2578 127.986Z" fill="#1DEDA2"/>
</svg>
