<svg width="384" height="384" viewBox="0 0 384 384" fill="none" xmlns="http://www.w3.org/2000/svg">
<path d="M316.299 106.324L250.314 191.979L205.09 133.275C198.531 124.761 185.67 124.761 179.111 133.275L133.887 191.979L67.9016 106.324C61.8074 98.4132 64.1716 86.9465 72.9003 82.0799L184.11 20.0766C189.076 17.3078 195.125 17.3078 200.091 20.0766L311.301 82.0799C320.029 86.9465 322.394 98.4132 316.299 106.324Z" fill="#1DEDA2"/>
<path d="M133.887 191.979L179.111 250.683C185.67 259.197 198.531 259.197 205.09 250.683L250.314 191.979L316.302 277.638C322.396 285.547 320.033 297.012 311.307 301.88L200.095 363.921C195.127 366.693 189.074 366.693 184.106 363.921L72.8938 301.88C64.1678 297.012 61.8055 285.547 67.8987 277.638L133.887 191.979Z" fill="#1DEDA2"/>
</svg>
